<?xml version="1.0" standalone="no"?>
<!DOCTYPE svg PUBLIC "-//W3C//DTD SVG 20010904//EN"
 "http://www.w3.org/TR/2001/REC-SVG-20010904/DTD/svg10.dtd">
<svg version="1.0" xmlns="http://www.w3.org/2000/svg"
 width="400.000000pt" height="400.000000pt" viewBox="0 0 400.000000 400.000000"
 preserveAspectRatio="xMidYMid meet">
<metadata>
Created by potrace 1.14, written by Peter Selinger 2001-2017
</metadata>
<g transform="translate(0.000000,400.000000) scale(0.100000,-0.100000)"
fill="#000000" stroke="none">
<path d="M1973 3458 c-10 -13 -77 -140 -253 -483 -189 -368 -274 -533 -340
-660 -37 -71 -118 -229 -180 -350 -62 -121 -141 -274 -175 -340 -241 -463
-236 -453 -219 -470 14 -14 43 -16 220 -13 188 3 205 5 223 23 20 20 157 288
520 1012 110 221 206 405 212 409 6 3 17 0 24 -7 18 -20 495 -968 495 -985 0
-8 -7 -17 -15 -20 -8 -4 -140 -7 -293 -8 -263 -1 -279 -2 -298 -21 -26 -25
-194 -349 -194 -374 0 -11 9 -21 23 -24 12 -3 344 -6 738 -7 623 0 718 1 728
14 11 13 -9 58 -114 263 -71 136 -140 271 -155 298 -15 28 -78 149 -140 270
-62 121 -116 225 -120 230 -4 6 -65 123 -135 260 -70 138 -142 277 -160 310
-18 33 -64 121 -102 195 -221 425 -256 490 -268 490 -7 0 -17 -6 -22 -12z"/>
<path d="M1150 614 l0 -94 46 0 c76 0 113 30 114 92 0 59 -32 88 -102 93 l-58
3 0 -94z m114 34 c28 -43 5 -88 -45 -91 l-34 -2 -3 58 -3 57 35 0 c26 0 40 -6
50 -22z"/>
<path d="M1673 703 c-9 -3 -13 -31 -13 -94 0 -83 1 -89 20 -89 17 0 20 5 17
34 -5 43 6 48 86 37 4 -1 7 -17 7 -36 0 -24 5 -35 15 -35 21 0 25 163 4 184
-13 15 -21 1 -21 -38 0 -26 -4 -36 -16 -37 -10 0 -27 -2 -40 -3 -24 -3 -43 20
-35 41 6 18 -10 41 -24 36z"/>
<path d="M2226 665 c-10 -24 -28 -65 -41 -92 -19 -39 -20 -49 -8 -51 8 -2 20
4 27 14 19 25 97 27 114 3 19 -28 45 -25 36 4 -5 17 -62 143 -69 155 -1 1 -11
4 -23 7 -16 3 -23 -5 -36 -40z m62 -68 c-2 -8 -13 -10 -29 -7 -25 5 -25 6 -11
40 l14 35 15 -28 c8 -16 13 -34 11 -40z"/>
<path d="M2718 699 c-9 -5 -13 -32 -12 -91 1 -69 4 -84 17 -86 13 -3 17 4 17
27 0 41 27 41 63 1 15 -16 37 -30 49 -30 21 0 21 1 -6 29 l-28 29 21 21 c36
36 19 99 -27 102 -59 5 -83 4 -94 -2z m105 -42 c9 -23 -10 -40 -47 -43 -34 -3
-36 -1 -36 26 0 28 2 30 39 30 23 0 41 -5 44 -13z"/>
<path d="M3272 696 c-4 -6 -17 -31 -27 -56 -11 -25 -27 -61 -37 -80 -14 -31
-15 -35 -1 -38 8 -2 21 5 28 15 10 14 24 18 57 17 58 -2 58 -2 58 -19 0 -9 9
-15 21 -15 13 0 19 5 16 13 -56 145 -91 195 -115 163z m48 -96 c0 -11 -36 -19
-48 -11 -7 4 -5 18 4 41 l15 34 14 -28 c8 -16 15 -32 15 -36z"/>
<path d="M665 658 c-10 -24 -29 -67 -42 -95 -22 -51 -22 -53 -4 -53 11 0 22 8
25 18 9 27 106 28 113 1 3 -10 14 -19 24 -19 21 0 24 11 10 38 -4 9 -22 47
-40 85 -37 81 -58 87 -86 25z m54 -76 c-42 -7 -49 0 -33 38 l16 35 18 -35 c18
-34 18 -35 -1 -38z"/>
</g>
</svg>
